#!OML:ASF F:\VICON\USERDATA\INSTALL\rory3\rory3.ASF
:FULLY-SPECIFIED
:DEGREES
332
root 0.261273 17.8799 35.6247 -2.54526 -4.2838 -6.7349
lowerback 11.3226 0.876812 5.76982
upperback 0.562281 2.04999 2.46279
thorax -5.65918 0.887602 -0.986975
lowerneck -15.4872 -2.70748 -1.39006
upperneck 20.8453 -3.37023 -0.198505
head 9.12447 -1.70998 -0.252088
rclavicle 1.2424e-015 -9.93923e-016
rhumerus -25.4984 -13.941 -81.4629
rradius 26.5651
rwrist 1.29579
rhand -17.0897 17.6417
rfingers 7.12502
rthumb 9.14882 -12.1399
lclavicle 1.2424e-015 -9.93923e-016
lhumerus -33.3179 5.06831 81.6929
lradius 26.7726
lwrist 5.78734
lhand -26.7872 19.0056
lfingers 7.12502
lthumb -0.214563 48.9852
rfemur -4.1041 7.4872 34.0787
rtibia 29.3161
rfoot -17.9714 -8.46314
rtoes 4.30893
lfemur -29.544 0.33488 -11.7361
ltibia 55.7927
lfoot -7.53916 1.03866
ltoes -5.05503
333
root 0.256594 17.86 35.7834 -2.48024 -4.54376 -7.17677
lowerback 11.3362 0.98945 6.13435
upperback 0.616881 2.25039 2.57773
thorax -5.58898 0.980509 -1.10047
lowerneck -15.4746 -2.78463 -1.46386
upperneck 20.792 -3.44845 -0.239563
head 9.1049 -1.7569 -0.26282
rclavicle -1.02995e-014 -8.34896e-015
rhumerus -25.1592 -13.2972 -81.6438
rradius 27.1795
rwrist 0.763507
rhand -17.4686 20.3124
rfingers 7.12502
rthumb 8.7832 -9.4848
lclavicle -1.02995e-014 -8.34896e-015
lhumerus -33.4459 5.29447 81.6849
lradius 26.5853
lwrist 5.64505
lhand -26.9726 19.1879
lfingers 7.12502
lthumb -0.393653 49.1673
rfemur -3.41739 7.72888 34.6561
rtibia 29.0555
rfoot -18.2215 -8.62527
rtoes 4.0483
lfemur -29.7261 0.586292 -11.1794
ltibia 53.199
lfoot -7.36496 2.20252
ltoes -5.96887
334
root 0.250173 17.8422 35.9394 -2.34949 -4.62329 -7.36093
lowerback 11.4643 1.08381 6.23935
upperback 0.611303 2.40173 2.6014
thorax -5.65436 1.05022 -1.16097
lowerneck -15.7854 -2.89239 -1.58506
upperneck 20.8966 -3.58706 -0.132006
head 9.20398 -1.81789 -0.229433
rclavicle 1.74806e-014 3.56818e-014
rhumerus -24.8639 -12.898 -81.7746
rradius 27.755
rwrist 0.45846
rhand -17.4863 21.9032
rfingers 7.12502
rthumb 8.76609 -7.89476
lclavicle 1.74806e-014 3.56818e-014
lhumerus -33.5176 5.44446 81.6313
lradius 26.2932
lwrist 5.43927
lhand -27.008 18.5196
lfingers 7.12502
lthumb -0.4278 48.4989
rfemur -2.83123 7.92272 34.9414
rtibia 28.6656
rfoot -18.2672 -8.68001
rtoes 4.76737
lfemur -29.8668 0.623632 -10.9332
ltibia 50.3628
lfoot -7.03829 3.3566
ltoes -7.92315
335
root 0.248608 17.8508 36.1155 -2.29338 -4.62355 -7.00983
lowerback 11.2193 1.15886 5.90818
upperback 0.70685 2.42488 2.46911
thorax -5.42126 1.07674 -1.11086
lowerneck -16.0658 -2.91978 -1.7022
upperneck 21.0315 -3.60521 -0.0665033
head 9.30667 -1.82693 -0.195908
rclavicle -1.37969e-014 -5.46658e-015
rhumerus -24.4159 -12.2876 -81.9307
rradius 28.0936
rwrist 0.20313
rhand -17.2139 21.8148
rfingers 7.12502
rthumb 9.02897 -7.97196
lclavicle -1.37969e-014 -5.46658e-015
lhumerus -33.5636 5.48531 81.6123
lradius 25.9725
lwrist 5.45433
lhand -27.0906 18.0183
lfingers 7.12502
lthumb -0.507606 47.9974
rfemur -2.07445 7.82826 34.5615
rtibia 28.2672
rfoot -17.1246 -10.5874
rtoes 8.55715
lfemur -29.7704 0.308352 -11.289
ltibia 47.3122
lfoot -5.96649 4.71852
ltoes -7.74732
336
root 0.256294 17.8613 36.3018 -2.20473 -4.60526 -6.83555
lowerback 10.7362 1.19075 5.90169
upperback 0.831874 2.41379 2.36559
thorax -5.01476 1.08391 -1.19851
lowerneck -16.0493 -2.90479 -1.72714
upperneck 20.9346 -3.55106 -0.174579
head 9.26788 -1.81584 -0.220676
rclavicle -6.31141e-015 1.50082e-014
rhumerus -23.9085 -11.8989 -82.046
rradius 28.318
rwrist 0.205569
rhand -16.9583 21.3902
rfingers 7.12502
rthumb 9.27557 -8.38573
lclavicle -6.31141e-015 1.50082e-014
lhumerus -33.6805 5.70991 81.5532
lradius 25.8341
lwrist 5.59975
lhand -27.2316 17.8919
lfingers 7.12502
lthumb -0.643792 47.8707
rfemur -1.29934 7.41447 34.2754
rtibia 27.8826
rfoot -17.2366 -10.9634
rtoes 9.60824
lfemur -29.6365 -0.0497033 -11.4316
ltibia 44.1641
lfoot -4.62002 5.70465
ltoes -4.78413
337
root 0.258236 17.8502 36.4693 -2.06648 -4.65497 -7.06462
lowerback 10.5318 1.23713 6.19172
upperback 0.904945 2.48671 2.33949
thorax -4.80561 1.1206 -1.39043
lowerneck -16.1285 -2.88553 -1.54858
upperneck 20.9018 -3.54077 -0.293905
head 9.26482 -1.80981 -0.290614
rclavicle -1.27533e-014 -1.42131e-014
rhumerus -23.3618 -11.5459 -82.232
rradius 28.5176
rwrist 0.0304916
rhand -17.7692 22.1152
rfingers 7.12502
rthumb 8.49303 -7.69402
lclavicle -1.27533e-014 -1.42131e-014
lhumerus -33.6434 6.26616 81.2337
lradius 25.4841
lwrist 4.9544
lhand -26.9984 17.5263
lfingers 7.12502
lthumb -0.418565 47.5056
rfemur -0.61372 7.38253 34.5389
rtibia 27.443
rfoot -17.6197 -10.9283
rtoes 9.41325
lfemur -29.5153 -0.177161 -11.0787
ltibia 40.9923
lfoot -4.03622 5.69629
ltoes -7.1912
338
root 0.254375 17.8334 36.6296 -1.88715 -4.7513 -7.0686
lowerback 10.4358 1.33438 6.12373
upperback 0.937385 2.59553 2.29477
thorax -4.71118 1.17855 -1.41068
lowerneck -16.2202 -2.92163 -1.58922
upperneck 20.7839 -3.62642 -0.0857165
head 9.24631 -1.82936 -0.223744
rclavicle -2.76994e-014 1.31695e-014
rhumerus -22.8517 -11.3078 -82.3025
rradius 28.6559
rwrist 0.0486459
rhand -18.0033 22.8563
rfingers 7.12502
rthumb 8.26712 -6.96192
lclavicle -2.76994e-014 1.31695e-014
lhumerus -33.5924 6.75962 81.0152
lradius 25.0523
lwrist 4.44575
lhand -26.8179 17.3999
lfingers 7.12502
lthumb -0.244208 47.3795
rfemur 0.00394169 7.62731 34.6131
rtibia 26.9713
rfoot -17.9095 -11.0862
rtoes 9.01671
lfemur -29.3993 -0.469357 -10.883
ltibia 37.9078
lfoot -3.82437 5.87073
ltoes -11.8504
339
root 0.255421 17.8194 36.8014 -1.74108 -4.81683 -7.11787
lowerback 10.4333 1.3722 6.08255
upperback 0.813894 2.65107 2.35188
thorax -4.84089 1.20152 -1.33761
lowerneck -15.986 -2.96484 -1.89606
upperneck 20.6885 -3.6573 0.116431
head 9.18118 -1.84657 -0.103215
rclavicle -7.94517e-015 -9.93923e-016
rhumerus -22.5904 -10.6617 -82.2793
rradius 28.749
rwrist -0.354427
rhand -17.8921 22.877
rfingers 7.12502
rthumb 8.37443 -6.93702
lclavicle -7.94517e-015 -9.93923e-016
lhumerus -34.1502 7.5154 80.7317
lradius 24.9414
lwrist 3.72309
lhand -26.5534 16.4444
lfingers 7.12502
lthumb 0.0112348 46.4241
rfemur 0.709309 7.65791 34.675
rtibia 26.5855
rfoot -18.3021 -11.0298
rtoes 8.20852
lfemur -29.2107 -0.951578 -10.6193
ltibia 34.8902
lfoot -3.4973 6.10165
ltoes -15.3086
340
root 0.258027 17.797 36.9702 -1.60325 -4.9837 -7.58092
lowerback 10.5113 1.44257 6.54447
upperback 0.736554 2.8135 2.42834
thorax -4.93804 1.2678 -1.54083
lowerneck -15.8883 -3.02491 -1.89639
upperneck 20.6262 -3.73703 0.0947464
head 9.14202 -1.88671 -0.118401
rclavicle 1.11257e-014 9.54166e-015
rhumerus -22.4811 -10.2845 -82.3528
rradius 29.1629
rwrist -0.800037
rhand -17.8305 22.9046
rfingers 7.12502
rthumb 8.4339 -6.90696
lclavicle 1.11257e-014 9.54166e-015
lhumerus -34.4833 7.54614 80.6042
lradius 24.7983
lwrist 3.62777
lhand -27.2192 14.6778
lfingers 7.12502
lthumb -0.631819 44.6566
rfemur 1.43904 7.74722 35.1999
rtibia 26.252
rfoot -18.6854 -10.8141
rtoes 7.53953
lfemur -28.9465 -1.25055 -9.8615
ltibia 31.7814
lfoot -3.53566 6.0515
ltoes -16.3461
341
root 0.261211 17.7739 37.1304 -1.47312 -5.05649 -7.85607
lowerback 10.582 1.47756 6.79293
upperback 0.745637 2.89571 2.44699
thorax -4.95123 1.30254 -1.67304
lowerneck -15.8549 -3.02839 -1.79531
upperneck 20.4119 -3.78074 0.15648
head 9.06125 -1.89286 -0.116808
rclavicle -3.49737e-014 -8.74653e-015
rhumerus -22.2693 -10.0475 -82.4627
rradius 29.6875
rwrist -0.865276
rhand -18.0605 23.142
rfingers 7.12502
rthumb 8.21199 -6.6784
lclavicle -3.49737e-014 -8.74653e-015
lhumerus -34.5163 7.38748 80.6036
lradius 24.5446
lwrist 3.81415
lhand -27.2129 15.5677
lfingers 7.12502
lthumb -0.625733 45.5465
rfemur 2.07213 7.6611 35.4919
rtibia 25.9288
rfoot -18.9307 -10.5792
rtoes 7.61975
lfemur -28.7088 -1.82828 -9.20032
ltibia 28.6769
lfoot -4.36266 6.05784
ltoes -11.3254
